<svg width="14" height="14" viewBox="0 0 14 14" fill="none" xmlns="http://www.w3.org/2000/svg">
<g id="gridicons:calendar">
<path id="Vector" d="M11.0833 2.33334H10.5V1.16667H9.33333V2.33334H4.66667V1.16667H3.5V2.33334H2.91667C2.60725 2.33334 2.3105 2.45625 2.09171 2.67505C1.87292 2.89384 1.75 3.19059 1.75 3.50001V11.0833C1.75 11.3928 1.87292 11.6895 2.09171 11.9083C2.3105 12.1271 2.60725 12.25 2.91667 12.25H11.0833C11.3928 12.25 11.6895 12.1271 11.9083 11.9083C12.1271 11.6895 12.25 11.3928 12.25 11.0833V3.50001C12.25 3.19059 12.1271 2.89384 11.9083 2.67505C11.6895 2.45625 11.3928 2.33334 11.0833 2.33334ZM11.0833 11.0833H2.91667V4.66667H11.0833V11.0833Z" fill="black"/>
</g>
</svg>
