<svg width="22" height="22" viewBox="0 0 64 64" xmlns="http://www.w3.org/2000/svg" aria-hidden="true" focusable="false" data-di-res-id="b71ec517-6e9c2e75" data-di-rand="1700225374837">
          
          
        <path fill-rule="evenodd" clip-rule="evenodd" d="M5.976 12.134a232.34 232.34 0 014.353-.085c.76-.01 1.52-.02 2.281-.035L19.244 12c2.862.001 5.723.04 8.585.078 1.561.02 3.122.041 4.684.056 1.573.044 3.145.083 4.718.121 2.85.07 5.7.14 8.55.245l6.635.264c.775.044 1.55.083 2.324.123 1.436.073 2.873.146 4.31.247.564.039.988.519.949 1.071-.037.504-.45.894-.949.929-1.45.101-2.901.175-4.351.249-.761.039-1.522.077-2.283.12l-6.634.264c-2.862.107-5.724.177-8.585.247-1.562.038-3.123.076-4.684.12-1.552.015-3.104.035-4.655.056-2.872.038-5.743.076-8.614.077l-6.634-.014a431.02 431.02 0 00-2.302-.035c-1.444-.019-2.889-.038-4.332-.084-1.127-.037-2.012-.961-1.975-2.066.036-1.058.91-1.897 1.975-1.934zm4.353 17.915c.76-.01 1.52-.02 2.281-.035L19.244 30c2.862.001 5.723.04 8.585.078 1.561.02 3.123.041 4.684.056 1.573.044 3.145.083 4.718.121 2.85.07 5.7.14 8.55.245l6.635.264c.774.044 1.549.083 2.323.123h.001c1.437.073 2.873.146 4.31.247.564.039.988.519.949 1.071-.037.504-.45.894-.949.929-1.45.101-2.9.175-4.351.249-.761.039-1.522.077-2.283.12l-6.634.264c-2.862.107-5.724.177-8.585.247-1.562.038-3.123.076-4.684.12-1.552.015-3.103.035-4.655.056-2.872.038-5.743.076-8.614.077l-6.634-.014a431.02 431.02 0 00-2.302-.035c-1.444-.019-2.889-.038-4.332-.084-1.127-.037-2.012-.961-1.975-2.066.036-1.058.91-1.897 1.975-1.934a232.31 232.31 0 014.353-.085zm0 18c-1.451.019-2.902.038-4.353.085-1.065.037-1.939.876-1.975 1.934-.037 1.105.848 2.029 1.975 2.066 1.443.046 2.888.065 4.332.084.767.01 1.535.02 2.302.035l6.634.014c2.871-.001 5.742-.04 8.614-.077 1.551-.02 3.103-.041 4.655-.056 1.561-.044 3.122-.082 4.684-.12 2.861-.07 5.723-.14 8.585-.247l6.634-.264c.76-.043 1.522-.081 2.282-.12 1.45-.074 2.902-.148 4.352-.249.5-.035.912-.425.949-.929a1.01 1.01 0 00-.949-1.071c-1.436-.1-2.873-.174-4.31-.247-.775-.04-1.55-.08-2.324-.123l-6.634-.264c-2.85-.106-5.7-.175-8.55-.245-1.574-.038-3.146-.077-4.719-.121a1218.57 1218.57 0 01-4.684-.056A665.811 665.811 0 0019.244 48l-6.634.014c-.76.014-1.52.024-2.28.034z"></path>
      
        </svg>