<svg width="35" height="35" viewBox="0 0 64 64" xmlns="http://www.w3.org/2000/svg" aria-hidden="true" focusable="false" data-di-res-id="b6dcaf20-a1490717" data-di-rand="1700225374836">
          
          
        <path fill-rule="evenodd" clip-rule="evenodd" d="M55.705 54.296L45.723 43.06c2.803-3.37 4.53-7.647 4.766-12.03.313-5.001-1.244-10.12-4.37-14.056-3.073-3.96-7.647-6.738-12.589-7.628-4.933-.928-10.185.03-14.484 2.632-4.297 2.589-7.618 6.764-9.098 11.573-1.506 4.787-1.218 10.115.856 14.695 2.038 4.6 5.804 8.362 10.382 10.437 4.575 2.092 9.893 2.403 14.694.937a2 2 0 00-1.167-3.826l-.009.002c-3.873 1.18-8.182.932-11.865-.756-3.684-1.668-6.748-4.722-8.384-8.426-1.674-3.69-1.904-8.006-.689-11.868 1.185-3.871 3.88-7.253 7.346-9.343 3.461-2.095 7.708-2.875 11.696-2.122a16.752 16.752 0 0110.162 6.16c2.525 3.175 3.777 7.3 3.527 11.348-.22 4.057-2.006 7.969-4.877 10.837l-.084.084-.073.078a1.889 1.889 0 00.157 2.666L54.29 55.71a1.004 1.004 0 001.415-1.415z"></path>
      
        </svg>