<svg version="1.1" id="Layer_1" xmlns="http://www.w3.org/2000/svg" xmlns:xlink="http://www.w3.org/1999/xlink" x="0px" y="0px" viewBox="-274.1 522.4 97.9 24.5" style="enable-background:new -274.1 522.4 97.9 24.5;" xml:space="preserve">
 <style type="text/css">
  .st0{fill:url(#SVGID_1_);}
	.st1{fill:#CE210F;}
 </style>
 <g>
  <linearGradient id="SVGID_1_" gradientUnits="userSpaceOnUse" x1="-186.5063" y1="556.2081" x2="-198.8422" y2="534.8419" gradientTransform="matrix(1 0 0 -1 0 1084.334)">
   <stop offset="0" style="stop-color:#E6EBEF">
   </stop>
   <stop offset="7.640000e-02" style="stop-color:#BBCEE5">
   </stop>
   <stop offset="0.1854" style="stop-color:#85A9D8">
   </stop>
   <stop offset="0.2796" style="stop-color:#5D8FCF">
   </stop>
   <stop offset="0.3543" style="stop-color:#457EC9">
   </stop>
   <stop offset="0.4" style="stop-color:#3C78C7">
   </stop>
   <stop offset="0.9" style="stop-color:#2E5C99">
   </stop>
  </linearGradient>
  <path class="st0" d="M-183,531.5c-2.8,2.7-8.8,5.1-11.7,6.2c-4,1.5-5.8,2-8.1,2.8c-2.5,0.8-7.6,2.4-7.6,2.4c10.6,3.2,18,4.1,18,4.1
		s3.5-1.1,9-4c3-1.5,4.4-2.5,5.5-3.5c0.4-0.3,1.4-1.4,1.6-2.7c0-0.1,0.1-0.4,0.1-0.6c0,0,0-0.2,0-0.3c0-0.2,0-0.3,0-0.3
		s-0.1-0.3-0.1-0.5c-0.1-0.2-0.4-0.9-1-1.3c-0.4-0.3-1-1-3.3-1.9c-0.8-0.3-2.1-0.5-2.1-0.5L-183,531.5z">
  </path>
  <path class="st1" d="M-176.2,536c0,0,0-0.3-0.1-0.5c-0.1-0.2-0.2-0.4-0.3-0.7c-0.2-0.3-0.4-0.6-0.8-0.9c-0.3-0.3-0.6-0.5-0.9-0.7
		c-1.4-0.9-3.3-1.5-4.9-1.7c-2.6-0.3-5.5-0.3-5.8-0.3c-0.9,0-7,0-8.6,0.1c-6.9,0.1-15.4,0.2-17.7,0.2c-23,0.1-33-0.4-44.1-2.6
		c-9.5-1.9-14.7-3.7-14.7-3.7c8.4-0.3,57.1-2.3,66-2.5c5.8-0.2,10-0.2,13.3,0c1.7,0.1,3.3,0.2,5.3,0.6c1.8,0.3,3.4,0.8,4.3,1.2
		c2,0.7,3.6,1.8,4.5,2.9c0,0,0.2,0.2,0.6,0.7c0.4,0.5,0.8,1.2,0.9,1.4c1.2,1.8,1.8,3,2,3.4c0.2,0.4,0.4,0.9,0.6,1.3
		c0.2,0.4,0.3,0.7,0.3,0.9c0.1,0.4,0.2,0.9,0.2,1L-176.2,536z">
  </path>
 </g>
</svg>